<svg width="64" height="64" viewBox="0 0 64 64" fill="none" xmlns="http://www.w3.org/2000/svg">
<path d="M2.66602 45.3327V34.666H24.5327L7.99935 21.5993V29.3327H2.66602V13.3327H5.33268L34.666 29.466V10.666H47.9994L61.3327 26.666V45.3327H54.666C54.666 47.5549 53.8882 49.4438 52.3327 50.9994C50.7771 52.5549 48.8882 53.3327 46.666 53.3327C44.4438 53.3327 42.5549 52.5549 40.9994 50.9994C39.4438 49.4438 38.666 47.5549 38.666 45.3327H23.9993C23.9993 47.5549 23.2216 49.4438 21.666 50.9994C20.1105 52.5549 18.2216 53.3327 15.9993 53.3327C13.7771 53.3327 11.8882 52.5549 10.3327 50.9994C8.77713 49.4438 7.99935 47.5549 7.99935 45.3327H2.66602ZM15.9993 49.3327C17.1549 49.3327 18.1105 48.9549 18.866 48.1994C19.6216 47.4438 19.9993 46.4882 19.9993 45.3327C19.9993 44.1771 19.6216 43.2216 18.866 42.466C18.1105 41.7105 17.1549 41.3327 15.9993 41.3327C14.8438 41.3327 13.8882 41.7105 13.1327 42.466C12.3771 43.2216 11.9993 44.1771 11.9993 45.3327C11.9993 46.4882 12.3771 47.4438 13.1327 48.1994C13.8882 48.9549 14.8438 49.3327 15.9993 49.3327ZM46.666 49.3327C47.8216 49.3327 48.7771 48.9549 49.5327 48.1994C50.2882 47.4438 50.666 46.4882 50.666 45.3327C50.666 44.1771 50.2882 43.2216 49.5327 42.466C48.7771 41.7105 47.8216 41.3327 46.666 41.3327C45.5105 41.3327 44.5549 41.7105 43.7994 42.466C43.0438 43.2216 42.666 44.1771 42.666 45.3327C42.666 46.4882 43.0438 47.4438 43.7994 48.1994C44.5549 48.9549 45.5105 49.3327 46.666 49.3327ZM39.9994 26.666H54.3994L45.466 15.9993H39.9994V26.666Z" fill="#DABB8D"/>
</svg>
