<svg width="64" height="64" viewBox="0 0 64 64" fill="none" xmlns="http://www.w3.org/2000/svg">
<path d="M5.33398 56.0007V50.6673H29.334V20.8673C28.1784 20.4673 27.1784 19.8451 26.334 19.0007C25.4895 18.1562 24.8673 17.1562 24.4673 16.0007H16.0007L24.0007 34.6673C24.0007 36.8895 23.0895 38.7784 21.2673 40.334C19.4451 41.8895 17.2451 42.6673 14.6673 42.6673C12.0895 42.6673 9.88954 41.8895 8.06732 40.334C6.2451 38.7784 5.33398 36.8895 5.33398 34.6673L13.334 16.0007H8.00065V10.6673H24.4673C25.0007 9.11176 25.9562 7.83398 27.334 6.83398C28.7118 5.83398 30.2673 5.33398 32.0006 5.33398C33.734 5.33398 35.2895 5.83398 36.6673 6.83398C38.0451 7.83398 39.0006 9.11176 39.534 10.6673H56.0006V16.0007H50.6673L58.6673 34.6673C58.6673 36.8895 57.7562 38.7784 55.934 40.334C54.1118 41.8895 51.9118 42.6673 49.334 42.6673C46.7562 42.6673 44.5562 41.8895 42.734 40.334C40.9118 38.7784 40.0006 36.8895 40.0006 34.6673L48.0006 16.0007H39.534C39.134 17.1562 38.5118 18.1562 37.6673 19.0007C36.8229 19.8451 35.8229 20.4673 34.6673 20.8673V50.6673H58.6673V56.0007H5.33398ZM44.334 34.6673H54.334L49.334 23.0673L44.334 34.6673ZM9.66732 34.6673H19.6673L14.6673 23.0673L9.66732 34.6673ZM32.0006 16.0007C32.7562 16.0007 33.3895 15.7451 33.9007 15.234C34.4118 14.7229 34.6673 14.0895 34.6673 13.334C34.6673 12.5784 34.4118 11.9451 33.9007 11.434C33.3895 10.9229 32.7562 10.6673 32.0006 10.6673C31.2451 10.6673 30.6118 10.9229 30.1006 11.434C29.5895 11.9451 29.334 12.5784 29.334 13.334C29.334 14.0895 29.5895 14.7229 30.1006 15.234C30.6118 15.7451 31.2451 16.0007 32.0006 16.0007Z" fill="#DABB8D"/>
</svg>
