<svg width="64" height="65" viewBox="0 0 64 65" fill="none" xmlns="http://www.w3.org/2000/svg">
<path d="M32 56.3333V19" stroke="#053326" stroke-width="5.33333" stroke-linecap="round" stroke-linejoin="round"/>
<path d="M42.666 32.4993L47.9993 37.8327L58.666 27.166" stroke="#053326" stroke-width="5.33333" stroke-linecap="round" stroke-linejoin="round"/>
<path d="M58.6673 16.5V11.1667C58.6673 10.4594 58.3864 9.78115 57.8863 9.28105C57.3862 8.78095 56.7079 8.5 56.0007 8.5H42.6673C39.8383 8.5 37.1252 9.62381 35.1248 11.6242C33.1245 13.6246 32.0007 16.3377 32.0007 19.1667C32.0007 16.3377 30.8768 13.6246 28.8765 11.6242C26.8761 9.62381 24.163 8.5 21.334 8.5H8.00065C7.29341 8.5 6.61513 8.78095 6.11503 9.28105C5.61494 9.78115 5.33398 10.4594 5.33398 11.1667V45.8333C5.33398 46.5406 5.61494 47.2189 6.11503 47.719C6.61513 48.2191 7.29341 48.5 8.00065 48.5H24.0007C26.1224 48.5 28.1572 49.3429 29.6575 50.8431C31.1578 52.3434 32.0007 54.3783 32.0007 56.5C32.0007 54.3783 32.8435 52.3434 34.3438 50.8431C35.8441 49.3429 37.8789 48.5 40.0007 48.5H56.0007C56.7079 48.5 57.3862 48.2191 57.8863 47.719C58.3864 47.2189 58.6673 46.5406 58.6673 45.8333V42.3667" stroke="#053326" stroke-width="5.33333" stroke-linecap="round" stroke-linejoin="round"/>
</svg>
