<svg width="64" height="64" viewBox="0 0 64 64" fill="none" xmlns="http://www.w3.org/2000/svg">
<path d="M46.2 26.6673L45.4667 23.534C44.9778 23.3562 44.5 23.134 44.0333 22.8673C43.5667 22.6007 43.1333 22.2895 42.7333 21.934L39.6667 22.934L37.8667 19.8673L40.2 17.6007C40.1111 17.0673 40.0667 16.534 40.0667 16.0007C40.0667 15.4673 40.1111 14.934 40.2 14.4007L37.8667 12.2673L39.6667 9.20065L42.6667 10.0673C43.0667 9.71176 43.5 9.40065 43.9667 9.13398C44.4333 8.86732 44.9333 8.6451 45.4667 8.46732L46.2 5.33398H49.7333L50.5333 8.40065C51.0667 8.62287 51.5667 8.86732 52.0333 9.13398C52.5 9.40065 52.9333 9.71176 53.3333 10.0673L56.3333 9.20065L58.1333 12.2673L55.8667 14.4007C55.9556 14.934 56.0111 15.4784 56.0333 16.034C56.0556 16.5895 56 17.134 55.8667 17.6673L58.1333 19.8007L56.4 22.8673L53.3333 21.934C52.9333 22.2895 52.4889 22.6007 52 22.8673C51.5111 23.134 51.0222 23.3562 50.5333 23.534L49.7333 26.6673H46.2ZM48 20.0007C49.1111 20.0007 50.0556 19.6118 50.8333 18.834C51.6111 18.0562 52 17.1118 52 16.0007C52 14.8895 51.6111 13.9451 50.8333 13.1673C50.0556 12.3895 49.1111 12.0007 48 12.0007C46.8889 12.0007 45.9444 12.3895 45.1667 13.1673C44.3889 13.9451 44 14.8895 44 16.0007C44 17.1118 44.3889 18.0562 45.1667 18.834C45.9444 19.6118 46.8889 20.0007 48 20.0007ZM20 42.6673C21.1111 42.6673 22.0556 42.2784 22.8333 41.5007C23.6111 40.7229 24 39.7784 24 38.6673C24 37.5562 23.6111 36.6118 22.8333 35.834C22.0556 35.0562 21.1111 34.6673 20 34.6673C18.8889 34.6673 17.9444 35.0562 17.1667 35.834C16.3889 36.6118 16 37.5562 16 38.6673C16 39.7784 16.3889 40.7229 17.1667 41.5007C17.9444 42.2784 18.8889 42.6673 20 42.6673ZM44 42.6673C45.1111 42.6673 46.0556 42.2784 46.8333 41.5007C47.6111 40.7229 48 39.7784 48 38.6673C48 37.5562 47.6111 36.6118 46.8333 35.834C46.0556 35.0562 45.1111 34.6673 44 34.6673C42.8889 34.6673 41.9444 35.0562 41.1667 35.834C40.3889 36.6118 40 37.5562 40 38.6673C40 39.7784 40.3889 40.7229 41.1667 41.5007C41.9444 42.2784 42.8889 42.6673 44 42.6673ZM48 32.0007C49.4222 32.0007 50.8111 31.8229 52.1667 31.4673C53.5222 31.1118 54.8 30.5784 56 29.8673V53.334C56 54.0895 55.7444 54.7229 55.2333 55.234C54.7222 55.7451 54.0889 56.0007 53.3333 56.0007H50.6667C49.9111 56.0007 49.2778 55.7451 48.7667 55.234C48.2556 54.7229 48 54.0895 48 53.334V50.6673H16V53.334C16 54.0895 15.7444 54.7229 15.2333 55.234C14.7222 55.7451 14.0889 56.0007 13.3333 56.0007H10.6667C9.91111 56.0007 9.27778 55.7451 8.76667 55.234C8.25556 54.7229 8 54.0895 8 53.334V32.0007L13.5333 16.0007C13.8 15.2007 14.2778 14.5562 14.9667 14.0673C15.6556 13.5784 16.4444 13.334 17.3333 13.334H32.2667C32.1778 13.7784 32.1111 14.2118 32.0667 14.634C32.0222 15.0562 32 15.5118 32 16.0007C32 16.4895 32.0222 16.9451 32.0667 17.3673C32.1111 17.7895 32.1778 18.2229 32.2667 18.6673H18.2667L15.4667 26.6673H36.1333C37.6889 28.3562 39.4889 29.6673 41.5333 30.6007C43.5778 31.534 45.7333 32.0007 48 32.0007Z" fill="#053326"/>
</svg>
