<svg width="64" height="64" viewBox="0 0 64 64" fill="none" xmlns="http://www.w3.org/2000/svg">
<path d="M13.3332 56C11.0665 56 9.4554 54.9889 8.49984 52.9667C7.54429 50.9444 7.77762 49.0667 9.19984 47.3333L23.9998 29.3333V13.3333H21.3332C20.5776 13.3333 19.9443 13.0778 19.4332 12.5667C18.9221 12.0556 18.6665 11.4222 18.6665 10.6667C18.6665 9.91111 18.9221 9.27778 19.4332 8.76667C19.9443 8.25556 20.5776 8 21.3332 8H42.6665C43.4221 8 44.0554 8.25556 44.5665 8.76667C45.0776 9.27778 45.3332 9.91111 45.3332 10.6667C45.3332 11.4222 45.0776 12.0556 44.5665 12.5667C44.0554 13.0778 43.4221 13.3333 42.6665 13.3333H39.9998V29.3333L54.7998 47.3333C56.2221 49.0667 56.4554 50.9444 55.4998 52.9667C54.5443 54.9889 52.9332 56 50.6665 56H13.3332ZM18.6665 48H45.3332L36.2665 37.3333H27.7332L18.6665 48Z" fill="#DABB8D"/>
</svg>
