<svg width="64" height="64" viewBox="0 0 64 64" fill="none" xmlns="http://www.w3.org/2000/svg">
<path d="M41.3333 53.1327L30 41.7993L33.7333 38.066L41.3333 45.666L56.4 30.5993L60.1333 34.3327L41.3333 53.1327ZM56 26.666H50.6667V13.3327H45.3333V21.3327H18.6667V13.3327H13.3333V50.666H29.3333V55.9993H13.3333C11.8667 55.9993 10.6111 55.4771 9.56667 54.4327C8.52222 53.3882 8 52.1327 8 50.666V13.3327C8 11.866 8.52222 10.6105 9.56667 9.56602C10.6111 8.52157 11.8667 7.99935 13.3333 7.99935H24.4667C24.9556 6.44379 25.9111 5.16602 27.3333 4.16602C28.7556 3.16602 30.3111 2.66602 32 2.66602C33.7778 2.66602 35.3667 3.16602 36.7667 4.16602C38.1667 5.16602 39.1111 6.44379 39.6 7.99935H50.6667C52.1333 7.99935 53.3889 8.52157 54.4333 9.56602C55.4778 10.6105 56 11.866 56 13.3327V26.666ZM32 13.3327C32.7556 13.3327 33.3889 13.0771 33.9 12.566C34.4111 12.0549 34.6667 11.4216 34.6667 10.666C34.6667 9.91046 34.4111 9.27713 33.9 8.76602C33.3889 8.2549 32.7556 7.99935 32 7.99935C31.2444 7.99935 30.6111 8.2549 30.1 8.76602C29.5889 9.27713 29.3333 9.91046 29.3333 10.666C29.3333 11.4216 29.5889 12.0549 30.1 12.566C30.6111 13.0771 31.2444 13.3327 32 13.3327Z" fill="#DABB8D"/>
</svg>
