<svg width="48" height="48" viewBox="0 0 48 48" fill="none" xmlns="http://www.w3.org/2000/svg">
<path d="M38.86 25.87C39.574 23.936 40 21.96 40 20C40 15.7565 38.3143 11.6869 35.3137 8.68629C32.3131 5.68571 28.2435 4 24 4C19.7565 4 15.6869 5.68571 12.6863 8.68629C9.68571 11.6869 8 15.7565 8 20C8 29.986 19.078 40.386 22.798 43.598C23.1446 43.8586 23.5664 43.9995 24 43.9995C24.4336 43.9995 24.8554 43.8586 25.202 43.598C25.7522 43.1219 26.2943 42.6365 26.828 42.142" stroke="#DABB8D" stroke-width="4" stroke-linecap="round" stroke-linejoin="round"/>
<path d="M24 26C27.3137 26 30 23.3137 30 20C30 16.6863 27.3137 14 24 14C20.6863 14 18 16.6863 18 20C18 23.3137 20.6863 26 24 26Z" stroke="#DABB8D" stroke-width="4" stroke-linecap="round" stroke-linejoin="round"/>
<path d="M32 36L36 40L44 32" stroke="#DABB8D" stroke-width="4" stroke-linecap="round" stroke-linejoin="round"/>
</svg>
