<svg width="51" height="48" viewBox="0 0 51 18" fill="none" xmlns="http://www.w3.org/2000/svg">
<path d="M-0.000133038 -1.71661e-05H2.52259L8.45441 14.4886H8.65896L14.5908 -1.71661e-05H17.1135V17.4545H15.1362V4.19317H14.9658L9.51123 17.4545H7.60214L2.14759 4.19317H1.97714V17.4545H-0.000133038V-1.71661e-05ZM22.0673 17.4545H19.8514L26.2605 -1.71661e-05H28.4423L34.8514 17.4545H32.6355L27.4196 2.76135H27.2832L22.0673 17.4545ZM22.8855 10.6363H31.8173V12.5113H22.8855V10.6363ZM38.5929 -1.71661e-05L43.0929 7.26135H43.2293L47.7293 -1.71661e-05H50.2179L44.7293 8.72726L50.2179 17.4545H47.7293L43.2293 10.3295H43.0929L38.5929 17.4545H36.1043L41.7293 8.72726L36.1043 -1.71661e-05H38.5929Z" fill="#DABB8D"/>
</svg>
