<svg width="64" height="64" viewBox="0 0 64 64" fill="none" xmlns="http://www.w3.org/2000/svg">
<path d="M46.7994 31.9993L37.3327 22.5327L41.1327 18.7993L46.7994 24.466L58.1327 13.1327L61.866 16.9327L46.7994 31.9993ZM23.9993 31.9993C21.066 31.9993 18.5549 30.9549 16.466 28.866C14.3771 26.7771 13.3327 24.266 13.3327 21.3327C13.3327 18.3993 14.3771 15.8882 16.466 13.7993C18.5549 11.7105 21.066 10.666 23.9993 10.666C26.9327 10.666 29.4438 11.7105 31.5327 13.7993C33.6216 15.8882 34.666 18.3993 34.666 21.3327C34.666 24.266 33.6216 26.7771 31.5327 28.866C29.4438 30.9549 26.9327 31.9993 23.9993 31.9993ZM2.66602 53.3327V45.866C2.66602 44.3549 3.0549 42.966 3.83268 41.6994C4.61046 40.4327 5.64379 39.466 6.93268 38.7994C9.68824 37.4216 12.4882 36.3882 15.3327 35.6994C18.1771 35.0105 21.066 34.666 23.9993 34.666C26.9327 34.666 29.8216 35.0105 32.666 35.6994C35.5105 36.3882 38.3105 37.4216 41.066 38.7994C42.3549 39.466 43.3882 40.4327 44.166 41.6994C44.9438 42.966 45.3327 44.3549 45.3327 45.866V53.3327H2.66602Z" fill="#DABB8D"/>
</svg>
