<svg width="70" height="50" viewBox="30 -4 46 46" fill="none" xmlns="http://www.w3.org/2000/svg">
<path fill-rule="evenodd" clip-rule="evenodd" d="M64.7293 35.8717H63.9428V33.7605H64.7698C65.4976 33.7605 65.9244 34.0622 65.9244 34.8222C65.9244 35.5827 65.4527 35.8717 64.7293 35.8717ZM68.3017 30.5125V37.1032H70V30.5125H68.3017ZM62.2489 30.5125V37.1032H64.8285C66.4952 37.1032 67.677 36.3182 67.677 34.7687C67.677 33.3018 66.6211 32.529 64.8552 32.529H63.9428V30.5125H62.2489ZM61.2512 31.744V30.5125H55.567V31.744H57.5623V37.1032H59.2563V31.744H61.2512ZM52.0665 36.0002C51.1675 36.0002 50.7097 35.3349 50.7097 33.814C50.7097 32.2812 51.1947 31.6159 52.1519 31.6159C53.0775 31.6159 53.5315 32.2812 53.5315 33.8017C53.5315 35.3349 53.0461 36.0002 52.0665 36.0002ZM50.5838 30.5125H49.0153V39H50.7097V36.3305C51.1408 36.9173 51.7656 37.2317 52.4933 37.2317C54.1425 37.2317 55.2837 36.0164 55.2837 33.8017C55.2837 31.5993 54.1739 30.3844 52.5787 30.3844C51.7789 30.3844 51.1227 30.7235 50.6692 31.3638L50.5838 30.5125ZM45.9554 35.5292C45.7394 35.8182 45.3398 36.0537 44.7422 36.0537C44.0321 36.0537 43.6725 35.6862 43.6725 35.124C43.6725 34.3762 44.2567 34.1034 45.7127 34.1034H45.9554V35.5292ZM47.6494 32.6075C47.6494 31.0125 46.7643 30.409 44.9711 30.409C43.848 30.409 42.9629 30.7357 42.4502 31.0125V32.3102C42.9042 31.9918 43.9019 31.6532 44.7737 31.6532C45.5825 31.6532 45.9554 31.9133 45.9554 32.6242V32.9877H45.6812C43.0883 32.9877 41.938 33.7772 41.938 35.1117C41.938 36.4462 42.8188 37.1944 44.1313 37.1944C45.1285 37.1944 45.5553 36.8927 45.8834 36.5787H45.9554C45.9688 36.748 46.027 36.9712 46.0814 37.1032H47.7348C47.6761 36.5664 47.6494 36.0292 47.6494 35.4919V32.6075ZM39.8577 37.1032H41.8665L38.3479 32.3224L41.5384 28H39.7857L36.7212 32.19V28H35V37.1032H36.7212V32.8307L39.8577 37.1032Z" fill="#dabb8d"/>
<path d="M79.1519 20.5372L76.9403 24.48H74.2907L77.7505 18.4033L74.4221 12.8136H77.3564L79.4585 16.3391L81.3417 12.8136H83.9476L80.8381 18.4729L84.4293 24.48H81.495L79.1519 20.5372ZM67.4148 17.5915H71.0499V17.3596C71.0499 15.8983 70.6557 14.7618 69.3637 14.7618C68.1156 14.7618 67.4806 15.736 67.4148 17.5915ZM69.9331 24.712C66.6046 24.712 64.7214 22.7405 64.7214 18.6816C64.7214 15.1562 66.2324 12.5816 69.4075 12.5816C72.0134 12.5816 73.6994 14.1124 73.6994 18.1713V19.6326H67.4148C67.5244 21.5809 68.247 22.5318 70.152 22.5318C71.4221 22.5318 72.7798 22.0215 73.5899 21.4417V23.6915C72.8236 24.2481 71.5973 24.712 69.9331 24.712ZM56.1156 18.7281C56.1156 21.3721 56.8165 22.5318 58.2397 22.5318C59.7068 22.5318 60.4514 21.3489 60.4514 18.6353C60.4514 15.9448 59.7508 14.7618 58.3492 14.7618C56.8602 14.7618 56.1156 15.968 56.1156 18.7281ZM53.4223 18.7281C53.4223 14.8315 55.1741 12.5816 57.6922 12.5816C58.831 12.5816 59.7945 13.1383 60.4514 14.182V8.36035H63.0572V24.48H60.6485L60.5171 22.9725C59.8163 24.109 58.8091 24.712 57.5828 24.712C55.1303 24.712 53.4223 22.5782 53.4223 18.7281ZM45.5392 24.48H42.9333V12.8136H45.4734L45.5392 13.7877H45.6705C46.1961 13.2311 47.1157 12.6281 48.6705 12.6281C50.7945 12.6281 51.6704 13.6486 51.6704 15.968V24.48H49.0646V16.2463C49.0646 15.3649 48.6486 14.9474 47.7289 14.9474C46.7873 14.9474 46.0209 15.4809 45.5392 16.1071V24.48ZM38.2034 19.0295H37.8312C35.5975 19.0295 34.6998 19.5166 34.6998 20.885C34.6998 21.9288 35.2472 22.6246 36.3421 22.6246C37.2618 22.6246 37.8749 22.207 38.2034 21.6968V19.0295ZM40.8092 21.6272C40.8092 22.5782 40.853 23.5292 40.9406 24.48H38.4005C38.3129 24.2481 38.2253 23.8539 38.2034 23.5524H38.0939C37.5902 24.109 36.9333 24.6424 35.4005 24.6424C33.3859 24.6424 32.0283 23.3204 32.0283 20.9546C32.0283 18.5888 33.802 17.1973 37.7874 17.1973H38.2034V16.5477C38.2034 15.2953 37.6341 14.8315 36.3859 14.8315C35.0502 14.8315 33.5174 15.4345 32.8165 15.9911V13.6949C33.6049 13.2079 34.9625 12.6281 36.6924 12.6281C39.4516 12.6281 40.8092 13.6949 40.8092 16.5246V21.6272Z" fill="#dabb8d"/>
<path d="M25.6123 22.8564V24.48H28.1744V22.5086C28.1744 19.8413 27.7364 18.6353 26.7291 16.3158L23.2912 8.36036H20.4883L24.5393 17.6611C25.3714 19.563 25.6123 20.653 25.6123 22.8564Z" fill="#FC3F1D"/>
<path d="M30.4517 8.36042L27.2546 16.1535L29.9043 16.1535L33.1451 8.36044L30.4517 8.36042Z" fill="#FC3F1D"/>
</svg>
